<svg width="1270" height="72" viewBox="0 0 1270 72" fill="none" xmlns="http://www.w3.org/2000/svg">
<mask id="path-1-inside-1_548_11134" fill="white">
<path d="M0 0.0012207H1270V28.0012C1270 30.2104 1268.21 32.0012 1266 32.0012H4.00003C1.79089 32.0012 0 30.2104 0 28.0012V0.0012207Z"/>
</mask>
<path d="M0 0.0012207H1270H0ZM1271 28.0012C1271 30.7626 1268.76 33.0012 1266 33.0012H4C1.23858 33.0012 -1 30.7626 -1 28.0012H1C1 29.6581 2.34315 31.0012 4 31.0012H1266C1267.66 31.0012 1269 29.6581 1269 28.0012H1271ZM4 33.0012C1.23858 33.0012 -1 30.7626 -1 28.0012V0.0012207H1V28.0012C1 29.6581 2.34315 31.0012 4 31.0012V33.0012ZM1271 0.0012207V28.0012C1271 30.7626 1268.76 33.0012 1266 33.0012V31.0012C1267.66 31.0012 1269 29.6581 1269 28.0012V0.0012207H1271Z" fill="#CA63ED" mask="url(#path-1-inside-1_548_11134)"/>
<path d="M635.268 32.0012L635.268 64.0012" stroke="#CA63ED" stroke-miterlimit="10"/>
<path d="M647 52.2688L635.267 64.0021L623.533 52.2688" stroke="#CA63ED" stroke-miterlimit="10" stroke-linecap="square"/>
</svg>
