     <svg width="21" height="43" viewBox="0 0 21 43" fill="none" xmlns="http://www.w3.org/2000/svg">
            <g clip-path="url(#clip0_2234_17015)">
              <path
                d="M17.5647 41.7101C16.381 41.4149 15.5763 41.2563 14.1591 41.249C13.391 41.249 11.8519 41.2475 9.9751 41.246C7.98811 41.246 5.82342 41.246 3.59558 41.246C3.31655 41.246 3.03752 41.246 2.75703 41.246C2.52058 41.246 2.30617 41.2093 2.0947 41.13C1.67615 40.9744 1.31782 40.6527 1.11956 40.2489C1.01969 40.0477 0.958014 39.8289 0.937454 39.6042L0.928642 39.4309V39.2194V38.795C0.928642 38.2296 0.928642 37.6671 0.928642 37.1061C0.928642 32.6225 0.928642 28.3431 0.927174 25.1842C0.927174 24.9874 0.927174 24.795 0.927174 24.6056C0.933048 24.4558 0.944797 24.3089 0.98298 24.1709C1.052 23.8948 1.18124 23.651 1.34425 23.4571C1.67321 23.068 2.10204 22.8785 2.4545 22.833C2.54261 22.8139 2.62926 22.8168 2.70856 22.811C2.80696 22.811 2.90095 22.811 2.98612 22.811C3.16088 22.811 3.30921 22.811 3.42964 22.811C3.67048 22.811 3.79678 22.811 3.79678 22.811C3.79678 22.811 5.83517 22.811 8.99409 22.811C10.5728 22.811 12.4335 22.811 14.4587 22.811C15.4691 22.811 16.5191 22.8124 17.597 22.8139C18.0288 22.8168 18.4562 22.9916 18.7792 23.2897C19.1038 23.5864 19.3138 24.0078 19.352 24.4514L19.3608 24.6217V24.8317V25.2532C19.3608 25.5352 19.3608 25.8171 19.3608 26.0991C19.3608 26.6645 19.3608 27.2299 19.3608 27.7968C19.3608 28.9291 19.3608 30.0584 19.3608 31.173C19.3608 33.3833 19.3608 35.5303 19.3608 37.5012C19.3608 37.9696 19.3608 38.3955 19.3608 38.7524C19.3608 38.9316 19.3608 39.0916 19.3608 39.2326C19.3608 39.3031 19.3608 39.3677 19.3608 39.4279C19.3593 39.4764 19.3564 39.5205 19.3549 39.5601C19.3388 39.8421 19.2727 40.0888 19.1787 40.3076C19.0847 40.5264 18.9643 40.7203 18.8204 40.8951C18.6764 41.0698 18.509 41.2299 18.3049 41.3694C18.1008 41.5089 17.8584 41.6293 17.5618 41.7057C18.1566 41.8496 18.7572 41.7395 19.2639 41.4061C19.5179 41.2372 19.75 41.0081 19.9321 40.71C20.1142 40.4134 20.2464 40.0433 20.2743 39.6174C20.2772 39.5616 20.2816 39.4911 20.2831 39.4265C20.2831 39.3663 20.2831 39.3016 20.2831 39.2311C20.2831 39.0902 20.2831 38.9286 20.2831 38.7509C20.2831 38.3941 20.2831 37.9667 20.2831 37.4997C20.2831 35.5289 20.2831 33.3818 20.2831 31.1716C20.2831 30.0569 20.2831 28.9276 20.2831 27.7953C20.2831 27.2299 20.2831 26.663 20.2831 26.0976C20.2831 25.8157 20.2831 25.5337 20.2831 25.2517V24.8303V24.6202C20.2816 24.5409 20.2757 24.4528 20.2713 24.3706C20.214 23.6965 19.8939 23.0547 19.4034 22.6054C18.9158 22.1545 18.2608 21.8902 17.6102 21.8843C16.5264 21.8843 15.4691 21.8843 14.4543 21.8828C12.4291 21.8828 10.5699 21.8828 8.98968 21.8828C5.83076 21.8828 3.79237 21.8828 3.79237 21.8828C3.79237 21.8828 3.66461 21.8828 3.42523 21.8828C3.30481 21.8828 3.15648 21.8828 2.98172 21.8828C2.8936 21.8828 2.79815 21.8828 2.69534 21.8828C2.57492 21.8902 2.44569 21.8902 2.31205 21.9151C1.77601 21.9871 1.12543 22.272 0.629052 22.8609C0.383799 23.1531 0.187009 23.5232 0.0812714 23.9418C0.0239968 24.1503 0.00343665 24.3721 -0.00243767 24.5982C-0.00243767 24.7877 -0.00243767 24.98 -0.00243767 25.1783C-0.00243767 28.3372 -0.00243767 32.6167 -0.00390625 37.1002C-0.00390625 37.6612 -0.00390625 38.2237 -0.00390625 38.7891V39.2135V39.425C-0.00243767 39.5028 0.00343665 39.5924 0.00784239 39.6761C0.037214 40.0154 0.131203 40.3502 0.283936 40.6557C0.586463 41.2681 1.1269 41.7542 1.76426 41.9921C2.08001 42.1125 2.42953 42.1683 2.75262 42.1683C3.03312 42.1683 3.31215 42.1683 3.59118 42.1683C5.82048 42.1683 7.98517 42.1683 9.97069 42.1683C11.8461 42.1683 13.3851 42.1654 14.1547 42.1654C15.5719 42.158 16.3766 41.9994 17.5603 41.7042L17.5647 41.7101Z"
                fill="#0E0E11" fill-opacity="0.95"></path>
              <path
                d="M17.323 26.0881C16.5138 26.2908 15.8236 26.5948 15.2508 26.9986C15.1671 27.285 15.1084 27.5993 15.0717 27.9459C15.0364 28.291 14.9938 28.6067 14.9468 28.8931C14.8998 29.1795 14.8161 29.3821 14.6972 29.4996C14.5063 29.667 14.1979 29.761 13.769 29.786C13.3402 29.8095 12.8644 29.8154 12.3401 29.8036C12.0302 29.7919 11.7174 29.786 11.4032 29.786C11.0889 29.786 10.7746 29.7977 10.4662 29.8212C10.431 29.8447 10.4089 29.8961 10.403 29.9725C10.3972 30.0503 10.3942 30.1238 10.3942 30.1957C10.3942 30.3029 10.3884 30.369 10.3766 30.3925C10.5558 30.4645 10.7335 30.4909 10.9126 30.4733C11.0918 30.4557 11.2754 30.4292 11.4663 30.3925C11.5618 30.3808 11.6602 30.3661 11.7615 30.3484C11.8628 30.3308 11.9671 30.3161 12.0743 30.3044C12.4077 30.2926 12.7352 30.3367 13.0568 30.438C13.3784 30.5394 13.6824 30.6436 13.9673 30.7508C14.0393 30.7861 14.1127 30.8199 14.1905 30.8492C14.2684 30.8786 14.3418 30.9065 14.4137 30.93C14.3183 31.1209 14.1391 31.2428 13.8777 31.2957C13.6163 31.3486 13.3241 31.3765 13.0024 31.3765H12.5736C12.3474 31.3647 12.0978 31.3588 11.8232 31.3588C11.5485 31.3588 11.2901 31.3676 11.0463 31.3853C10.8025 31.4029 10.6145 31.4367 10.4838 31.4837C10.4001 31.5189 10.3355 31.5997 10.287 31.7245C10.24 31.8493 10.2151 31.9536 10.2151 32.0373H10.7599C10.945 32.0373 11.1315 32.0432 11.3224 32.0549C11.9054 32.0667 12.4708 32.0638 13.0186 32.0461C13.5664 32.0285 14.0128 31.9242 14.3579 31.7333C14.5958 31.8405 14.8514 31.9184 15.126 31.9654C15.3992 32.0124 15.665 32.0608 15.9205 32.1078C16.176 32.1548 16.3993 32.2385 16.5902 32.3575C16.7811 32.4764 16.9118 32.6615 16.9838 32.9111C16.6151 33.0418 16.1863 33.0991 15.6973 33.0815C15.2082 33.0639 14.75 33.0315 14.3227 32.9831C14.5136 33.1622 14.7368 33.3076 14.9924 33.4207C15.2479 33.5338 15.5108 33.6439 15.7781 33.7512C16.0453 33.8584 16.2744 33.9949 16.4653 34.1624C16.4653 34.3533 16.4947 34.4869 16.5549 34.5647C16.6151 34.6426 16.6886 34.7233 16.7782 34.8056C16.8677 34.8893 16.9544 35.0435 17.0366 35.2697C16.9896 35.3886 16.878 35.4899 16.7062 35.5737C16.5329 35.6574 16.3097 35.6867 16.0365 35.6632C15.9411 35.6515 15.7869 35.559 15.5724 35.3857C15.358 35.2139 15.1407 35.0112 14.9204 34.7792C14.7001 34.5471 14.5121 34.3356 14.3579 34.1447C14.239 33.9788 14.1465 33.8172 14.0804 33.663C14.0143 33.5088 13.9409 33.3649 13.8571 33.2342C13.7734 33.1035 13.6369 33.0022 13.4459 32.9302C13.1361 32.942 12.8717 32.9478 12.6514 32.9478C12.4312 32.9478 12.2138 32.942 11.9994 32.9302H11.2666C11.4457 33.0727 11.6176 33.2489 11.785 33.4574C11.9509 33.666 12.0728 33.9009 12.1507 34.1624C12.2285 34.4238 12.2197 34.7278 12.1242 35.0729C12.064 35.1801 12.0053 35.2374 11.9451 35.2432C11.8848 35.2491 11.8202 35.2462 11.7483 35.2344C11.713 35.2227 11.6704 35.2109 11.6234 35.1992C11.5764 35.1874 11.5221 35.1874 11.4634 35.1992C11.3092 35.092 11.1917 34.9495 11.1153 34.7703C11.0375 34.5912 10.964 34.4135 10.8921 34.2343C10.8201 34.0551 10.707 33.9127 10.5528 33.8055C10.6835 33.71 10.7467 33.5823 10.7408 33.4222C10.7349 33.2621 10.7085 33.1211 10.66 33.0022C10.4456 32.9904 10.2312 32.9904 10.0168 33.0022C9.8024 33.0139 9.59386 33.0315 9.3912 33.055C9.14154 33.0785 8.89335 33.0976 8.64956 33.1079C8.40578 33.1197 8.17081 33.102 7.94464 33.055C7.96814 33.2342 8.03129 33.3767 8.13262 33.4839C8.23395 33.5911 8.33822 33.6953 8.44543 33.7967C8.55264 33.898 8.61725 34.0375 8.64222 34.2167C8.97559 34.133 9.30014 34.1756 9.61589 34.3415C9.93163 34.5089 10.2048 34.7292 10.4368 35.0024C10.6689 35.277 10.8142 35.5384 10.8745 35.7881H10.8921C11.1535 35.8116 11.4032 35.8145 11.6425 35.7969C11.8804 35.7793 12.1418 35.6809 12.4282 35.5017C13.6545 35.5854 14.5709 35.9775 15.1789 36.681C14.7853 36.7529 14.4137 36.794 14.0627 36.8058C13.7118 36.8175 13.3402 36.8234 12.9466 36.8234C12.6603 36.8234 12.3577 36.8264 12.0361 36.8322C11.7145 36.8381 11.3576 36.8587 10.964 36.8954C10.8333 36.9556 10.7555 37.0378 10.732 37.145C10.7085 37.2522 10.6747 37.3448 10.6336 37.4226C10.591 37.5004 10.4824 37.5386 10.3032 37.5386C10.2797 37.6223 10.3267 37.6634 10.4456 37.6634C10.5293 37.6634 10.5763 37.6752 10.5881 37.6987C10.5646 37.7942 10.4691 37.8411 10.3017 37.8411C10.4207 37.9484 10.569 38.0232 10.7482 38.0644C10.9273 38.107 11.1227 38.1275 11.3371 38.1275C11.4795 38.1275 11.6293 38.1246 11.7835 38.1187C11.9377 38.1128 12.0993 38.104 12.2652 38.0923C12.4679 38.0805 12.6764 38.0717 12.8908 38.0658C13.1052 38.06 13.3138 38.0629 13.5164 38.0747C13.5752 38.0747 13.5943 38.0394 13.5693 37.9674C13.5458 37.8837 13.5693 37.8367 13.6413 37.825C14.0583 37.8367 14.493 37.8852 14.9454 37.9674C15.3977 38.0512 15.8148 38.176 16.1951 38.3419C16.5755 38.5079 16.8677 38.7414 17.0704 39.038C16.9162 39.229 16.7429 39.3273 16.552 39.3332C16.3611 39.3391 16.1408 39.3244 15.8911 39.2892C15.7957 39.2774 15.6914 39.2627 15.5783 39.2451C15.4652 39.2275 15.3492 39.2187 15.2303 39.2187C15.195 39.2187 15.1289 39.2304 15.0335 39.2539C14.9263 39.2892 14.8543 39.3009 14.8191 39.2892C14.7354 39.2774 14.6546 39.251 14.5782 39.2084C14.5004 39.1673 14.427 39.1394 14.355 39.1276C13.3784 39.0322 12.3548 39.0087 11.2827 39.0557C10.2107 39.1027 9.19881 39.1687 8.24717 39.2525C7.84184 39.2877 7.42624 39.3244 6.99741 39.3597C6.56858 39.3949 6.21759 39.5197 5.94444 39.7341C5.44512 39.8179 5.02804 39.7459 4.69468 39.5197C4.36131 39.2936 4.04556 39.038 3.74744 38.7517C3.67548 38.6915 3.60793 38.6298 3.54184 38.5637C3.47575 38.4976 3.4082 38.4359 3.33624 38.3757C3.75332 38.411 4.04409 38.4286 4.21151 38.4286C4.55663 38.4286 4.92818 38.411 5.32763 38.3757C5.72709 38.3405 6.13388 38.2979 6.55096 38.2509C7.05028 38.2039 7.54225 38.1584 8.02395 38.1172C8.50564 38.0761 8.93153 38.0673 9.30161 38.0908C9.37357 37.9953 9.40001 37.8735 9.38238 37.7251C9.36476 37.5768 9.3442 37.4299 9.31924 37.2875C9.30749 37.2155 9.29574 37.1509 9.28399 37.0907C9.27224 37.032 9.26637 36.9776 9.26637 36.9306C8.61138 36.9424 8.06066 36.9659 7.61421 37.0026C7.16777 37.0378 6.72425 37.0745 6.28368 37.1098C6.05752 36.9556 5.84898 36.7852 5.65806 36.6002C5.46715 36.4152 5.25861 36.2463 5.03245 36.0906C5.44953 36.0069 5.86807 35.957 6.29102 35.9393C6.71397 35.9217 7.15161 35.9129 7.60393 35.9129C7.85359 35.9129 8.10913 35.91 8.372 35.9041C8.63341 35.8982 8.90216 35.8894 9.17531 35.8777C9.27077 35.8307 9.33245 35.7616 9.36329 35.6721C9.39266 35.5825 9.41322 35.4841 9.42644 35.3769C9.29574 35.3416 9.20028 35.2579 9.14007 35.1272C9.07986 34.9965 9.02405 34.857 8.96971 34.7072C8.91684 34.5589 8.8302 34.4546 8.71124 34.3944C8.61579 34.6925 8.55704 34.9569 8.53208 35.1889C8.50858 35.4209 8.35878 35.5972 8.08563 35.7161C7.82422 35.6207 7.64505 35.487 7.5496 35.3137C7.45414 35.1419 7.38952 34.951 7.35281 34.7424C7.31756 34.5339 7.2456 34.3474 7.13839 34.18L7.28085 34.0551C7.2691 33.9127 7.26322 33.7673 7.26322 33.6175C7.26322 33.4677 7.28672 33.3297 7.33518 33.1975C7.04881 33.1388 6.79034 33.1241 6.5583 33.1534C6.32627 33.1828 6.09717 33.2283 5.87101 33.2871C5.70359 33.3223 5.53177 33.359 5.3526 33.3943C5.17343 33.4295 4.97811 33.4413 4.7637 33.4295C4.90615 33.5969 5.01336 33.8011 5.08532 34.0449C5.15728 34.2887 5.26448 34.4943 5.40694 34.6617C5.18078 34.7924 4.98692 34.9892 4.82685 35.2506C4.66677 35.512 4.49348 35.766 4.30844 36.0098C4.1234 36.2536 3.87668 36.4181 3.56681 36.5003C3.36414 36.3931 3.22756 36.2477 3.1556 36.0627C3.08364 35.8777 3.03665 35.6823 3.01315 35.4738C2.98965 35.2653 2.92944 35.0787 2.83398 34.9113C3.22756 34.7454 3.5389 34.5075 3.77094 34.1976C4.00297 33.8877 4.26732 33.6146 4.56544 33.3767C4.31578 33.2225 4.05291 33.0727 3.77975 32.9302C3.50513 32.7878 3.30393 32.6747 3.17323 32.591C3.72101 32.4118 4.30991 32.3046 4.9414 32.2694C5.57289 32.2341 6.21466 32.2091 6.86964 32.1974C7.23826 32.1974 7.60834 32.1915 7.97695 32.1798C8.34557 32.168 8.70977 32.1445 9.06664 32.1078C9.12685 31.9286 9.16797 31.7568 9.19147 31.5894C8.78614 31.5307 8.37053 31.5086 7.94171 31.5262C7.51288 31.5439 7.10755 31.5292 6.72719 31.4822C6.41732 31.4352 6.13535 31.3486 5.87835 31.2237C5.62282 31.0989 5.41134 30.8992 5.24392 30.626C5.51708 30.673 5.81227 30.6921 6.12801 30.6789C6.44375 30.6671 6.78593 30.6436 7.15455 30.6069C7.46442 30.5834 7.79191 30.5629 8.13703 30.5438C8.48214 30.5261 8.84488 30.5232 9.22671 30.535C9.22671 30.488 9.22084 30.4336 9.20909 30.3749C9.19734 30.3147 9.17972 30.2559 9.15622 30.1957C9.14447 30.1487 9.12979 30.1003 9.11217 30.0533C9.09454 30.0063 9.08573 29.9578 9.08573 29.9108C8.6804 29.8506 8.23395 29.8477 7.74639 29.902C7.25735 29.9549 6.86524 30.0474 6.56712 30.1796C6.29249 30.0724 6.01052 29.974 5.71828 29.8844C5.42603 29.7948 5.18518 29.6553 4.99573 29.4644V28.7315C5.00748 28.3747 5.01042 27.9899 5.00455 27.5802C4.99867 27.169 4.9414 26.768 4.83566 26.3745L4.19242 25.9456C3.97801 25.8032 3.80472 25.6181 3.67401 25.392C3.70926 25.392 3.76947 25.3744 3.85318 25.3391C3.96039 25.3156 4.08521 25.2892 4.22767 25.2583C4.37012 25.229 4.52579 25.2437 4.69174 25.3024C5.22777 25.1365 5.86073 25.0293 6.59355 24.9808C7.32637 24.9338 8.09297 24.903 8.89775 24.8912C9.70107 24.8795 10.4838 24.8501 11.246 24.8016V24.9808C12.3049 24.7664 13.3358 24.668 14.3359 24.6856C15.336 24.7032 16.3244 24.969 17.301 25.4801C17.3127 25.5036 17.3245 25.5403 17.3362 25.5873C17.3715 25.6593 17.395 25.7327 17.4082 25.8105C17.4199 25.8884 17.3906 25.9809 17.3186 26.0866L17.323 26.0881ZM8.98293 25.7856C8.5541 25.8208 8.12822 25.8428 7.70673 25.8487C7.28378 25.8546 6.86964 25.9119 6.46578 26.0191C6.40557 26.1733 6.39676 26.3583 6.43935 26.5727C6.48047 26.7871 6.526 26.9722 6.57299 27.1264C6.9416 27.0309 7.35574 26.9869 7.81394 26.9927C8.27214 26.9986 8.66865 26.9428 9.00202 26.8224L8.9844 25.787L8.98293 25.7856ZM9.07251 29.0708C9.06077 28.9283 9.05489 28.7286 9.05489 28.4731C9.05489 28.2175 9.03139 27.9943 8.98293 27.8034C8.53061 27.8269 8.09591 27.8548 7.67883 27.8842C7.26175 27.9135 6.89901 27.9708 6.58914 28.0531V28.3394C6.5774 28.4819 6.5774 28.6229 6.58914 28.7594C6.60089 28.896 6.65376 29.0179 6.74922 29.1251C6.94014 29.1016 7.12664 29.0899 7.31169 29.0899H8.44543C8.63635 29.0899 8.84488 29.084 9.07104 29.0723L9.07251 29.0708ZM13.4474 25.5535C12.9716 25.577 12.4385 25.5976 11.8496 25.6167C11.2607 25.6343 10.685 25.649 10.127 25.6607C10.2224 25.8032 10.3091 25.9706 10.3854 26.1601C10.4633 26.351 10.4721 26.5419 10.4119 26.7313C10.7335 26.7548 11.058 26.8033 11.3855 26.8738C11.713 26.9457 12.0023 27.0412 12.252 27.1602C12.5016 27.2791 12.6691 27.4274 12.7513 27.6066C12.6558 27.6184 12.5604 27.6272 12.4649 27.633C12.3695 27.6389 12.274 27.6477 12.1786 27.6595C11.9172 27.6947 11.6425 27.7256 11.3576 27.7491C11.0713 27.7726 10.7863 27.7726 10.5 27.7491C10.428 27.8915 10.3869 28.0442 10.3751 28.2043C10.3634 28.3644 10.3575 28.5171 10.3575 28.6596C10.3575 28.7198 10.3546 28.7727 10.3487 28.8197C10.3428 28.8667 10.3399 28.9151 10.3399 28.9621C10.4471 28.9739 10.5807 28.9768 10.7423 28.9709C10.9024 28.965 11.0786 28.9562 11.2695 28.9445C11.5794 28.921 11.9127 28.9063 12.2696 28.9004C12.6265 28.8946 12.954 28.9327 13.2521 29.0164C13.2756 28.8975 13.2991 28.7815 13.3241 28.6684C13.3476 28.5553 13.371 28.4452 13.396 28.338C13.5032 27.8386 13.584 27.3555 13.6369 26.8914C13.6897 26.4273 13.628 25.9809 13.4489 25.5521L13.4474 25.5535Z"
                fill="#0E0E11" fill-opacity="0.95"></path>
              <path
                d="M2.72519 0.460165C3.90886 0.75535 4.71364 0.913957 6.13082 0.9213C6.89889 0.9213 8.43797 0.922768 10.3148 0.924237C12.3018 0.924237 14.4665 0.924237 16.6943 0.924237C16.9734 0.924237 17.2524 0.924237 17.5329 0.924237C17.7693 0.924237 17.9837 0.960951 18.1952 1.04025C18.6138 1.19592 18.9721 1.51754 19.1703 1.9214C19.2702 2.1226 19.3319 2.34142 19.3525 2.56611L19.3613 2.7394V2.95088V3.3753C19.3613 3.9407 19.3613 4.50317 19.3613 5.06416C19.3613 9.54774 19.3613 13.8272 19.3627 16.9861C19.3627 17.1829 19.3627 17.3753 19.3627 17.5647C19.3569 17.7145 19.3451 17.8614 19.3069 17.9994C19.2379 18.2755 19.1087 18.5193 18.9457 18.7132C18.6167 19.1023 18.1879 19.2918 17.8354 19.3373C17.7473 19.3564 17.6607 19.3535 17.5813 19.3593C17.483 19.3593 17.389 19.3593 17.3038 19.3593C17.129 19.3593 16.9807 19.3593 16.8603 19.3593C16.6194 19.3593 16.4931 19.3593 16.4931 19.3593C16.4931 19.3593 14.4547 19.3593 11.2958 19.3593C9.7171 19.3593 7.85641 19.3593 5.83123 19.3593C4.82085 19.3593 3.77082 19.3579 2.69288 19.3564C2.26111 19.3535 1.83376 19.1787 1.51067 18.8806C1.18611 18.5839 0.976107 18.1624 0.937923 17.7189L0.929112 17.5486V17.3386V16.9171C0.929112 16.6351 0.929112 16.3531 0.929112 16.0712C0.929112 15.5058 0.929112 14.9404 0.929112 14.3735C0.929112 13.2412 0.929112 12.1119 0.929112 10.9972C0.929112 8.78702 0.929112 6.63995 0.929112 4.66912C0.929112 4.20064 0.929112 3.77475 0.929112 3.41789C0.929112 3.23872 0.929112 3.07864 0.929112 2.93766C0.929112 2.86717 0.929112 2.80255 0.929112 2.74234C0.930581 2.69388 0.933518 2.64982 0.934986 2.61017C0.951141 2.3282 1.01723 2.08148 1.11122 1.86266C1.20521 1.64384 1.32563 1.44999 1.46955 1.27523C1.61347 1.10047 1.78089 0.940391 1.98502 0.800876C2.18915 0.661361 2.43147 0.540937 2.72812 0.464571C2.13335 0.32065 1.5327 0.430794 1.02604 0.764161C0.771974 0.933048 0.539938 1.16215 0.357834 1.46027C0.172793 1.75398 0.0406208 2.1226 0.0127177 2.54849C0.00978057 2.60429 0.00537483 2.67478 0.00390625 2.7394C0.00390625 2.79961 0.00390625 2.86423 0.00390625 2.93472C0.00390625 3.07571 0.00390625 3.23725 0.00390625 3.41495C0.00390625 3.77181 0.00390625 4.19917 0.00390625 4.66618C0.00390625 6.63701 0.00390625 8.78408 0.00390625 10.9943C0.00390625 12.1089 0.00390625 13.2383 0.00390625 14.3706C0.00390625 14.936 0.00390625 15.5028 0.00390625 16.0682C0.00390625 16.3502 0.00390625 16.6322 0.00390625 16.9141V17.3356V17.5456C0.00537483 17.6249 0.0112492 17.713 0.0156549 17.7953C0.0729295 18.4694 0.39308 19.1111 0.883586 19.5605C1.37115 20.0114 2.02614 20.2757 2.67672 20.2816C3.76054 20.2816 4.81791 20.2816 5.8327 20.2831C7.85787 20.2831 9.7171 20.2831 11.2973 20.2831C14.4562 20.2831 16.4946 20.2831 16.4946 20.2831C16.4946 20.2831 16.6224 20.2831 16.8617 20.2831C16.9822 20.2831 17.1305 20.2831 17.3053 20.2831C17.3934 20.2831 17.4888 20.2831 17.5916 20.2831C17.712 20.2757 17.8413 20.2757 17.9749 20.2508C18.511 20.1788 19.1615 19.8939 19.6579 19.305C19.9032 19.0127 20.1 18.6427 20.2057 18.2241C20.263 18.0156 20.2835 17.7938 20.2894 17.5677C20.2894 17.3782 20.2894 17.1858 20.2894 16.9876C20.2894 13.8287 20.2894 9.54921 20.2909 5.06563C20.2909 4.50464 20.2909 3.94217 20.2909 3.37677V2.95235V2.74087C20.2894 2.66304 20.2835 2.57345 20.2791 2.48974C20.2498 2.1505 20.1558 1.81567 20.003 1.5102C19.7005 0.897802 19.1601 0.411702 18.5227 0.173792C18.207 0.0518998 17.8574 -0.00390625 17.5329 -0.00390625C17.2524 -0.00390625 16.9734 -0.00390625 16.6943 -0.00390625C14.465 -0.00390625 12.3003 -0.00390625 10.3148 -0.00390625C8.43943 -0.00390625 6.90036 -0.000969089 6.13082 -0.000969089C4.71364 0.00637381 3.90886 0.164981 2.72519 0.460165Z"
                fill="#0E0E11" fill-opacity="0.95"></path>
              <path
                d="M18.3984 14.5856C18.0533 14.6458 17.6714 14.6664 17.2558 14.6488C16.8388 14.6312 16.3982 14.6047 15.9341 14.568C15.8739 14.568 15.8181 14.5651 15.7638 14.5592C15.7109 14.5533 15.6536 14.5504 15.5949 14.5504C15.1895 14.5269 14.771 14.5063 14.3363 14.4872C13.9016 14.4696 13.4581 14.4784 13.0058 14.5137C13.4228 14.7163 13.8355 14.966 14.2467 15.2641C14.6579 15.5622 14.9942 15.9132 15.2556 16.3171C15.4216 16.5917 15.5435 16.8913 15.6213 17.2188C15.6991 17.5463 15.7021 17.9061 15.6301 18.2997C15.1058 18.3716 14.699 18.3378 14.4068 18.2013C14.1145 18.0647 13.8796 17.8708 13.7019 17.6212C13.4992 17.3348 13.3274 17.0014 13.1835 16.6211C13.0395 16.2407 12.8442 15.8824 12.5946 15.549C12.4271 15.3111 12.2583 15.1114 12.085 14.9513C11.9117 14.7912 11.7428 14.6209 11.5754 14.4417C11.0761 14.4535 10.6046 14.4946 10.1641 14.5665C9.72349 14.6385 9.29466 14.6855 8.87759 14.709C8.84234 14.756 8.87171 14.8338 8.96717 14.941C9.01416 14.988 9.05969 15.0482 9.10081 15.1202C9.14193 15.1921 9.15662 15.2685 9.14487 15.3522C8.8115 15.6136 8.48401 15.9264 8.16239 16.2892C7.84077 16.6519 7.51327 16.9177 7.17991 17.0837C7.2034 17.2628 7.15053 17.4112 7.01983 17.5301C6.88913 17.6491 6.73933 17.7622 6.57338 17.8694C6.48967 17.9281 6.40596 17.9883 6.32372 18.0485C6.24002 18.1087 6.16952 18.1734 6.10931 18.2453C5.88315 18.1851 5.65699 18.1587 5.43083 18.1646C5.20467 18.1704 4.95501 18.1322 4.68038 18.0485C4.84633 17.7269 5.1004 17.42 5.43964 17.1292C5.77888 16.837 6.11519 16.5344 6.44855 16.2187C6.78192 15.9029 7.02571 15.549 7.18138 15.1554C6.91997 14.9763 6.62478 14.9351 6.29729 15.0306C5.9698 15.1261 5.65111 15.2391 5.34124 15.3698C5.16208 15.4536 4.99613 15.524 4.84193 15.5843C4.68773 15.6445 4.54381 15.6738 4.4131 15.6738C4.04449 15.6856 3.70084 15.6048 3.38656 15.433C3.07082 15.2612 2.76976 15.0732 2.48486 14.8705C2.3894 14.8103 2.29394 14.7516 2.19848 14.6914C2.10302 14.6312 2.00757 14.5724 1.91211 14.5122C1.94736 14.4535 2.01344 14.4255 2.1089 14.4314C2.20436 14.4373 2.25135 14.3991 2.25135 14.3154C3.08404 14.2434 3.98721 14.1524 4.95648 14.0378C5.92721 13.9248 6.93025 13.8176 7.9656 13.7162C9.00095 13.6149 10.0245 13.5591 11.0379 13.5459H11.5284C11.7002 13.5459 11.8823 13.5517 12.0732 13.5635C12.2994 13.5635 12.5285 13.5664 12.7605 13.5723C12.9925 13.5782 13.2216 13.5752 13.4478 13.5635C13.8047 13.54 14.1469 13.4945 14.4743 13.4299C14.8018 13.3638 15.097 13.2536 15.3584 13.0994C15.68 13.1596 16.0281 13.2154 16.4026 13.2698C16.7771 13.3226 17.1266 13.4152 17.4468 13.5473C17.6729 13.6428 17.8726 13.7706 18.0445 13.9306C18.2163 14.0907 18.3323 14.3081 18.3925 14.5827L18.3984 14.5856ZM15.3628 7.44098C15.2791 7.58343 15.1543 7.68476 14.9883 7.74498C14.8209 7.80519 14.652 7.86393 14.4788 7.92414C14.3055 7.98435 14.1718 8.07834 14.0764 8.21052C14.0279 8.77005 14.0044 9.26789 14.0044 9.70113C14.0044 10.1344 14.0103 10.5676 14.022 10.9964C14.0338 11.3533 14.0396 11.7234 14.0396 12.1037C14.0396 12.4841 14.0279 12.9012 14.0044 13.3535C13.8972 13.3182 13.8076 13.3036 13.7371 13.3094C13.6652 13.3153 13.5947 13.3182 13.5227 13.3182C13.4507 13.33 13.3773 13.3388 13.2995 13.3447C13.2216 13.3505 13.1233 13.3359 13.0043 13.3006C12.8853 13.2404 12.7869 13.1611 12.7091 13.0598C12.6313 12.9584 12.5446 12.8659 12.4506 12.7822C12.0101 12.8894 11.5548 12.9496 11.0849 12.9614C10.6149 12.9731 10.1567 12.9819 9.71027 12.9878C9.26382 12.9937 8.84968 13.051 8.46932 13.1582C8.31512 13.2052 8.1712 13.283 8.04049 13.3902C7.90979 13.4974 7.76 13.5503 7.59405 13.5503C7.33264 13.5503 7.05801 13.4519 6.77311 13.2551C6.48674 13.0583 6.24295 12.8777 6.04029 12.7102C6.09903 12.675 6.17099 12.6574 6.2547 12.6574C6.33841 12.6574 6.40303 12.6339 6.45149 12.5854C6.28407 12.4782 6.1989 12.3358 6.19302 12.1566C6.18715 11.9774 6.19596 11.7939 6.21946 11.6029C6.24295 11.4487 6.2547 11.296 6.2547 11.1477C6.2547 10.9994 6.20771 10.8775 6.11225 10.782C6.20771 10.7585 6.2826 10.663 6.33547 10.4956C6.38834 10.3297 6.41624 10.1358 6.41624 9.91554C6.41624 9.69525 6.39275 9.49259 6.34428 9.30755C6.29729 9.1225 6.21945 8.99474 6.11225 8.92425C6.11225 8.889 6.15337 8.86403 6.23708 8.85229C6.34428 8.84054 6.39128 8.79942 6.37953 8.72746C6.22533 8.4778 5.9977 8.28688 5.70105 8.15618C5.40292 8.02548 5.11215 7.89477 4.82577 7.76407C5.2781 7.47769 5.71573 7.26328 6.13868 7.12083C6.56163 6.97838 7.01983 6.86823 7.51327 6.7904C8.00672 6.71256 8.57653 6.65088 9.2183 6.60242C9.27704 6.47172 9.31082 6.31017 9.31669 6.12073C9.32257 5.92981 9.31375 5.79323 9.29026 5.70952C8.80122 5.82848 8.31952 5.90925 7.8437 5.95037C7.36788 5.99296 6.94493 6.10163 6.57632 6.2808C6.24295 6.04289 5.92133 5.79323 5.61146 5.53036C5.30159 5.26895 5.08718 4.91796 4.96823 4.47738C5.2781 4.46564 5.5865 4.46857 5.89637 4.4862C6.20624 4.50382 6.50877 4.52438 6.80689 4.54934C6.90235 4.54934 6.99487 4.55228 7.08298 4.55816C7.17256 4.56403 7.26508 4.57284 7.35907 4.58459C7.66894 4.59634 7.98469 4.60515 8.30631 4.61103C8.62793 4.6169 8.95542 4.59634 9.28879 4.54788C9.30054 4.28647 9.26823 4.06618 9.19039 3.88701C9.11256 3.70785 9.02004 3.54777 8.9143 3.40532C8.8908 3.37007 8.86143 3.33042 8.82472 3.2893C8.78947 3.24818 8.75863 3.20853 8.73513 3.17329C8.59268 2.99412 8.47079 2.81055 8.36946 2.61963C8.26812 2.42871 8.25931 2.17318 8.34302 1.85156C8.79534 1.89856 9.24473 2.00283 9.69118 2.16437C10.1376 2.32591 10.4798 2.5418 10.7177 2.81642C10.8837 3.00734 10.9821 3.22469 11.0129 3.46847C11.0423 3.71225 10.9615 3.98394 10.7721 4.28059C11.0335 4.37605 11.3286 4.37312 11.6561 4.27178C11.9836 4.17045 12.2729 4.07206 12.5226 3.9766C12.5696 3.9531 12.6181 3.93254 12.6651 3.91345C12.712 3.89583 12.7546 3.88114 12.7899 3.86939C13.0395 4.0001 13.3259 4.09849 13.6475 4.16458C13.9692 4.23066 14.2702 4.3129 14.5492 4.41424C14.8283 4.51557 15.028 4.69767 15.147 4.95908C14.8488 5.17349 14.4685 5.30126 14.0044 5.34238C13.5403 5.38497 13.0513 5.4114 12.5402 5.42315C12.2421 5.42315 11.9513 5.42609 11.665 5.43196C11.3786 5.43784 11.1054 5.46427 10.844 5.51273C10.7133 5.59644 10.6179 5.7154 10.5576 5.8696C10.4974 6.0238 10.4563 6.20297 10.4328 6.40563C10.7192 6.46584 11.0393 6.4864 11.3977 6.46878C11.7545 6.45116 12.0409 6.34689 12.2553 6.15597C12.4345 6.19122 12.6445 6.21912 12.8897 6.23674C13.1335 6.25437 13.3803 6.28961 13.6314 6.34395C13.881 6.39682 14.1043 6.48347 14.3011 6.60242C14.4978 6.72138 14.6256 6.89467 14.6844 7.12083C14.8151 7.15608 14.9604 7.1781 15.122 7.18398C15.2821 7.18985 15.3628 7.2765 15.3628 7.44245V7.44098ZM12.3258 12.067C12.3728 11.3166 12.3699 10.5397 12.317 9.73637C12.2641 8.93306 12.1525 8.14443 11.9866 7.37049C11.5695 7.29853 11.1084 7.2809 10.6032 7.31762C10.0965 7.35287 9.59425 7.42189 9.09347 7.52322C8.59415 7.62455 8.14036 7.74644 7.7365 7.8889C7.82021 8.00785 7.87308 8.13268 7.89657 8.26338C7.92007 8.39409 7.88483 8.52479 7.78937 8.65696C7.82461 8.65696 7.88483 8.65109 7.96853 8.63934C8.49282 8.55563 8.98626 8.49689 9.45033 8.46018C9.9144 8.42493 10.3374 8.4543 10.7177 8.54976C11.0981 8.64522 11.4314 8.85375 11.7178 9.17537C11.4079 9.18712 11.101 9.21943 10.7985 9.27377C10.4945 9.32664 10.1934 9.37804 9.89678 9.42503C9.52817 9.49699 9.15808 9.55867 8.78947 9.61301C8.42086 9.66588 8.0449 9.69378 7.66454 9.69378C7.65279 9.74078 7.64691 9.79511 7.64691 9.85386V10.033C7.65866 10.1167 7.6616 10.2004 7.65573 10.2827C7.64985 10.3664 7.62929 10.4501 7.59258 10.5323C8.0684 10.4971 8.53247 10.4428 8.98626 10.3723C9.43858 10.3003 9.83216 10.2239 10.1655 10.1402C10.4754 10.2357 10.7838 10.337 11.0937 10.4442C11.4035 10.5514 11.6532 10.7056 11.8441 10.9083C11.546 10.92 11.2523 10.9509 10.96 10.9979C10.6678 11.0463 10.3741 11.0992 10.0759 11.158C9.67062 11.2299 9.26382 11.2945 8.85262 11.3547C8.44142 11.415 8.0214 11.4385 7.59405 11.4267C7.62929 11.4869 7.64104 11.5486 7.62929 11.6147C7.61754 11.6808 7.59992 11.7483 7.57642 11.8203C7.56467 11.8805 7.54999 11.9451 7.53237 12.0171C7.51474 12.089 7.51181 12.1713 7.52355 12.2667C7.84517 12.2902 8.18735 12.2873 8.55009 12.2579C8.91283 12.2286 9.27851 12.1904 9.64859 12.1419C10.1244 12.0832 10.5914 12.0376 11.0511 12.0083C11.5093 11.9789 11.9352 11.9995 12.3273 12.0714L12.3258 12.067Z"
                fill="#0E0E11" fill-opacity="0.95"></path>
            </g>
            <defs>
              <clipPath id="clip0_2234_17015">
                <rect width="20.2884" height="42.1762" fill="white"></rect>
              </clipPath>
            </defs>
          </svg>