<svg display="block" role="presentation" xmlns="http://www.w3.org/2000/svg" id="2207193732" viewBox="4 4 16 16">   <path d="M 0 2.625 C 0 1.175 1.175 0 2.625 0 C 4.075 0 5.25 1.175 5.25 2.625 C 5.25 4.075 4.075 5.25 2.625 5.25 C 1.175 5.25 0 4.075 0 2.625 Z" fill="#fff" height="5.25px" id="wYIfDHPEK" transform="translate(4.5 4.5)" width="5.25px"></path>   <path d="M 0 2.625 C 0 1.175 1.175 0 2.625 0 C 4.075 0 5.25 1.175 5.25 2.625 C 5.25 4.075 4.075 5.25 2.625 5.25 C 1.175 5.25 0 4.075 0 2.625 Z" fill="#fff" height="5.25px" id="YOCjAr9UU" transform="translate(14.25 14.25)" width="5.25px"></path>   <path d="M 13.5 0 L 0 13.5" fill="#fff" height="13.5px" id="ntiFX_P08" stroke-dasharray="" stroke-linecap="round" stroke-linejoin="round" stroke-width="var(--pgex8v, 1.5)" stroke="#fff" transform="translate(5.25 5.25)" width="13.5px"></path>   <path d="M 0 2.625 C 0 1.175 1.175 0 2.625 0 C 4.075 0 5.25 1.175 5.25 2.625 C 5.25 4.075 4.075 5.25 2.625 5.25 C 1.175 5.25 0 4.075 0 2.625 Z" fill="transparent" height="5.25px" id="xU48DPYrO" stroke-dasharray="" stroke-linecap="round" stroke-linejoin="round" stroke-width="#fff" stroke="#fff" transform="translate(4.5 4.5)" width="5.25px"></path>   <path d="M 0 2.625 C 0 1.175 1.175 0 2.625 0 C 4.075 0 5.25 1.175 5.25 2.625 C 5.25 4.075 4.075 5.25 2.625 5.25 C 1.175 5.25 0 4.075 0 2.625 Z" fill="transparent" height="5.25px" id="kO9Bghws0" stroke-dasharray="" stroke-linecap="round" stroke-linejoin="round" stroke-width="#fff" stroke="#fff" transform="translate(14.25 14.25)" width="5.25px"></path> </svg>