 <svg width="20" height="20" viewBox="0 0 20 20" fill="none" xmlns="http://www.w3.org/2000/svg">
                  <path fill-rule="evenodd" clip-rule="evenodd"
                    d="M16.3096 3.08677C16.4921 3.00994 16.6919 2.98344 16.8882 3.01003C17.0845 3.03663 17.27 3.11534 17.4255 3.23798C17.5811 3.36062 17.7009 3.52271 17.7725 3.70737C17.8441 3.89202 17.865 4.09251 17.8328 4.28794L16.1574 14.4506C15.9949 15.4309 14.9193 15.9931 14.0202 15.5048C13.2682 15.0963 12.1513 14.4669 11.1466 13.8101C10.6443 13.4814 9.10549 12.4287 9.29461 11.6796C9.45713 11.0392 12.0427 8.63239 13.5201 7.20148C14.1 6.63931 13.8356 6.31501 13.1508 6.83212C11.4502 8.11603 8.71988 10.0685 7.81715 10.6181C7.02081 11.1027 6.60564 11.1854 6.10922 11.1027C5.20354 10.952 4.36361 10.7186 3.67807 10.4341C2.75171 10.05 2.79677 8.77645 3.67733 8.40561L16.3096 3.08677Z"
                    fill="black"></path>
                </svg>